# MagicaVoxel @ Ephtracy

# group
o 

# material
mtllib AmmoBoxPowerUp.mtl
usemtl palette

# normals
vn -1 0 0
vn 1 0 0
vn 0 0 1
vn 0 0 -1
vn 0 -1 0
vn 0 1 0

# texcoords
vt 0.185547 0.5
vt 0.513672 0.5
vt 0.677734 0.5
vt 0.990234 0.5
vt 0.994141 0.5

# verts
v -0.85 0 0.25
v -0.85 0 -0.25
v -0.85 0.2 0.25
v -0.85 0.2 -0.25
v -0.75 -0.7 0.35
v -0.75 -0.7 -0.35
v -0.75 -0.6 0.25
v -0.75 -0.6 -0.25
v -0.75 -0.5 0.25
v -0.75 -0.5 -0.15
v -0.75 0 0.25
v -0.75 0 -0.15
v -0.75 0 -0.25
v -0.75 0.2 0.25
v -0.75 0.2 -0.25
v -0.75 0.3 0.35
v -0.75 0.3 -0.35
v -0.65 -0.1 0.45
v -0.65 -0.1 0.35
v -0.65 -0.1 -0.35
v -0.65 -0.1 -0.45
v -0.65 0.2 0.45
v -0.65 0.2 0.35
v -0.65 0.2 -0.35
v -0.65 0.2 -0.45
v -0.65 0.3 0.45
v -0.65 0.3 0.35
v -0.65 0.3 0.25
v -0.65 0.3 -0.25
v -0.65 0.3 -0.35
v -0.65 0.3 -0.45
v -0.65 0.4 0.25
v -0.65 0.4 -0.25
v -0.45 0.4 0.15
v -0.45 0.4 -0.15
v -0.45 0.5 0.15
v -0.45 0.5 0.05
v -0.45 0.5 -0.05
v -0.45 0.5 -0.15
v -0.45 0.6 0.05
v -0.45 0.6 -0.05
v -0.35 0.5 0.15
v -0.35 0.5 0.05
v -0.35 0.5 -0.05
v -0.35 0.5 -0.15
v -0.35 0.6 0.15
v -0.35 0.6 0.05
v -0.35 0.6 -0.05
v -0.35 0.6 -0.15
v -0.25 0.6 0.05
v -0.25 0.6 -0.05
v -0.25 0.7 0.05
v -0.25 0.7 -0.05
v -0.15 0.6 0.15
v -0.15 0.6 0.05
v -0.15 0.6 -0.05
v -0.15 0.6 -0.15
v -0.15 0.7 0.15
v -0.15 0.7 0.05
v -0.15 0.7 -0.05
v -0.15 0.7 -0.15
v 0.15 0.5 0.15
v 0.15 0.5 -0.15
v 0.15 0.6 0.15
v 0.15 0.6 -0.15
v 0.35 0.4 0.15
v 0.35 0.4 -0.15
v 0.35 0.5 0.15
v 0.35 0.5 -0.15
v 0.45 -0.1 0.45
v 0.45 -0.1 0.35
v 0.45 -0.1 -0.35
v 0.45 -0.1 -0.45
v 0.45 0.2 0.45
v 0.45 0.2 0.35
v 0.45 0.2 -0.35
v 0.45 0.2 -0.45
v 0.45 0.3 0.45
v 0.45 0.3 0.35
v 0.45 0.3 -0.35
v 0.45 0.3 -0.45
v -0.45 -0.1 0.45
v -0.45 -0.1 0.35
v -0.45 -0.1 -0.35
v -0.45 -0.1 -0.45
v -0.45 0.2 0.45
v -0.45 0.2 0.35
v -0.45 0.2 -0.35
v -0.45 0.2 -0.45
v -0.45 0.3 0.45
v -0.45 0.3 0.35
v -0.45 0.3 -0.35
v -0.45 0.3 -0.45
v -0.35 0.4 0.15
v -0.35 0.4 -0.15
v -0.35 0.5 0.15
v -0.35 0.5 -0.15
v -0.15 0.5 0.15
v -0.15 0.5 -0.15
v -0.15 0.6 0.15
v -0.15 0.6 -0.15
v 0.15 0.6 0.15
v 0.15 0.6 0.05
v 0.15 0.6 -0.05
v 0.15 0.6 -0.15
v 0.15 0.7 0.15
v 0.15 0.7 0.05
v 0.15 0.7 -0.05
v 0.15 0.7 -0.15
v 0.25 0.6 0.05
v 0.25 0.6 -0.05
v 0.25 0.7 0.05
v 0.25 0.7 -0.05
v 0.35 0.5 0.15
v 0.35 0.5 0.05
v 0.35 0.5 -0.05
v 0.35 0.5 -0.15
v 0.35 0.6 0.15
v 0.35 0.6 0.05
v 0.35 0.6 -0.05
v 0.35 0.6 -0.15
v 0.45 0.4 0.15
v 0.45 0.4 -0.15
v 0.45 0.5 0.15
v 0.45 0.5 0.05
v 0.45 0.5 -0.05
v 0.45 0.5 -0.15
v 0.45 0.6 0.05
v 0.45 0.6 -0.05
v 0.65 -0.1 0.45
v 0.65 -0.1 0.35
v 0.65 -0.1 -0.35
v 0.65 -0.1 -0.45
v 0.65 0.2 0.45
v 0.65 0.2 0.35
v 0.65 0.2 -0.35
v 0.65 0.2 -0.45
v 0.65 0.3 0.45
v 0.65 0.3 0.35
v 0.65 0.3 0.25
v 0.65 0.3 -0.25
v 0.65 0.3 -0.35
v 0.65 0.3 -0.45
v 0.65 0.4 0.25
v 0.65 0.4 -0.25
v 0.75 -0.7 0.35
v 0.75 -0.7 -0.35
v 0.75 -0.6 0.25
v 0.75 -0.6 -0.25
v 0.75 -0.5 0.15
v 0.75 -0.5 -0.25
v 0.75 0 0.25
v 0.75 0 0.15
v 0.75 0 -0.25
v 0.75 0.2 0.25
v 0.75 0.2 -0.25
v 0.75 0.3 0.35
v 0.75 0.3 -0.35
v 0.85 0 0.25
v 0.85 0 -0.25
v 0.85 0.2 0.25
v 0.85 0.2 -0.25
v -0.65 -0.1 0.45
v -0.65 0.2 0.45
v -0.65 0.3 0.45
v -0.55 -0.1 0.45
v -0.55 0.2 0.45
v -0.45 -0.1 0.45
v -0.45 0.2 0.45
v -0.45 0.3 0.45
v 0.45 -0.1 0.45
v 0.45 0.2 0.45
v 0.45 0.3 0.45
v 0.65 -0.1 0.45
v 0.65 0.2 0.45
v 0.65 0.3 0.45
v -0.75 -0.7 0.35
v -0.75 0.3 0.35
v -0.65 -0.6 0.35
v -0.65 -0.1 0.35
v -0.65 0.2 0.35
v -0.65 0.3 0.35
v -0.55 -0.5 0.35
v -0.55 -0.1 0.35
v -0.45 -0.1 0.35
v -0.45 0.2 0.35
v -0.45 0.3 0.35
v -0.35 -0.4 0.35
v -0.35 -0.2 0.35
v -0.35 -0.1 0.35
v -0.35 0 0.35
v -0.25 -0.4 0.35
v -0.25 -0.2 0.35
v -0.25 -0.1 0.35
v -0.25 0 0.35
v -0.25 0.1 0.35
v -0.15 -0.3 0.35
v -0.15 -0.2 0.35
v -0.15 -0.1 0.35
v -0.15 0 0.35
v -0.15 0.1 0.35
v -0.05 -0.4 0.35
v -0.05 -0.3 0.35
v -0.05 -0.1 0.35
v -0.05 0 0.35
v 0.05 -0.4 0.35
v 0.05 -0.2 0.35
v 0.05 0 0.35
v 0.05 0.1 0.35
v 0.15 -0.3 0.35
v 0.15 -0.2 0.35
v 0.15 -0.1 0.35
v 0.15 0 0.35
v 0.15 0.1 0.35
v 0.25 -0.4 0.35
v 0.25 -0.3 0.35
v 0.25 -0.2 0.35
v 0.25 -0.1 0.35
v 0.25 0 0.35
v 0.35 -0.4 0.35
v 0.35 -0.3 0.35
v 0.35 -0.2 0.35
v 0.45 -0.3 0.35
v 0.45 -0.2 0.35
v 0.45 -0.1 0.35
v 0.45 0.2 0.35
v 0.45 0.3 0.35
v 0.65 -0.6 0.35
v 0.65 -0.5 0.35
v 0.65 -0.1 0.35
v 0.65 0.2 0.35
v 0.65 0.3 0.35
v 0.75 -0.7 0.35
v 0.75 0.3 0.35
v -0.85 0 0.25
v -0.85 0.2 0.25
v -0.75 0 0.25
v -0.75 0.2 0.25
v -0.65 0.3 0.25
v -0.65 0.4 0.25
v 0.65 0.3 0.25
v 0.65 0.4 0.25
v 0.75 0 0.25
v 0.75 0.2 0.25
v 0.85 0 0.25
v 0.85 0.2 0.25
v -0.45 0.4 0.15
v -0.45 0.5 0.15
v -0.35 0.4 0.15
v -0.35 0.5 0.15
v -0.35 0.6 0.15
v -0.15 0.5 0.15
v -0.15 0.6 0.15
v -0.15 0.7 0.15
v 0.15 0.5 0.15
v 0.15 0.6 0.15
v 0.15 0.7 0.15
v 0.35 0.4 0.15
v 0.35 0.5 0.15
v 0.35 0.6 0.15
v 0.45 0.4 0.15
v 0.45 0.5 0.15
v -0.45 0.5 0.05
v -0.45 0.6 0.05
v -0.35 0.5 0.05
v -0.35 0.6 0.05
v -0.25 0.6 0.05
v -0.25 0.7 0.05
v -0.15 0.6 0.05
v -0.15 0.7 0.05
v 0.15 0.6 0.05
v 0.15 0.7 0.05
v 0.25 0.6 0.05
v 0.25 0.7 0.05
v 0.35 0.5 0.05
v 0.35 0.6 0.05
v 0.45 0.5 0.05
v 0.45 0.6 0.05
v -0.45 0.5 -0.05
v -0.45 0.6 -0.05
v -0.35 0.5 -0.05
v -0.35 0.6 -0.05
v -0.25 0.6 -0.05
v -0.25 0.7 -0.05
v -0.15 0.6 -0.05
v -0.15 0.7 -0.05
v 0.15 0.6 -0.05
v 0.15 0.7 -0.05
v 0.25 0.6 -0.05
v 0.25 0.7 -0.05
v 0.35 0.5 -0.05
v 0.35 0.6 -0.05
v 0.45 0.5 -0.05
v 0.45 0.6 -0.05
v -0.45 0.4 -0.15
v -0.45 0.5 -0.15
v -0.35 0.4 -0.15
v -0.35 0.5 -0.15
v -0.35 0.6 -0.15
v -0.15 0.5 -0.15
v -0.15 0.6 -0.15
v -0.15 0.7 -0.15
v 0.15 0.5 -0.15
v 0.15 0.6 -0.15
v 0.15 0.7 -0.15
v 0.35 0.4 -0.15
v 0.35 0.5 -0.15
v 0.35 0.6 -0.15
v 0.45 0.4 -0.15
v 0.45 0.5 -0.15
v -0.85 0 -0.25
v -0.85 0.2 -0.25
v -0.75 0 -0.25
v -0.75 0.2 -0.25
v -0.65 0.3 -0.25
v -0.65 0.4 -0.25
v 0.65 0.3 -0.25
v 0.65 0.4 -0.25
v 0.75 0 -0.25
v 0.75 0.2 -0.25
v 0.85 0 -0.25
v 0.85 0.2 -0.25
v -0.75 -0.7 -0.35
v -0.75 0.3 -0.35
v -0.65 -0.6 -0.35
v -0.65 -0.5 -0.35
v -0.65 -0.1 -0.35
v -0.65 0.2 -0.35
v -0.65 0.3 -0.35
v -0.45 -0.3 -0.35
v -0.45 -0.2 -0.35
v -0.45 -0.1 -0.35
v -0.45 0.2 -0.35
v -0.45 0.3 -0.35
v -0.35 -0.4 -0.35
v -0.35 -0.3 -0.35
v -0.35 -0.2 -0.35
v -0.25 -0.4 -0.35
v -0.25 -0.3 -0.35
v -0.25 -0.2 -0.35
v -0.25 -0.1 -0.35
v -0.25 0 -0.35
v -0.15 -0.3 -0.35
v -0.15 -0.2 -0.35
v -0.15 -0.1 -0.35
v -0.15 0 -0.35
v -0.15 0.1 -0.35
v -0.05 -0.4 -0.35
v -0.05 -0.2 -0.35
v -0.05 0 -0.35
v -0.05 0.1 -0.35
v 0.05 -0.4 -0.35
v 0.05 -0.3 -0.35
v 0.05 -0.1 -0.35
v 0.05 0 -0.35
v 0.15 -0.3 -0.35
v 0.15 -0.2 -0.35
v 0.15 -0.1 -0.35
v 0.15 0 -0.35
v 0.15 0.1 -0.35
v 0.25 -0.4 -0.35
v 0.25 -0.2 -0.35
v 0.25 -0.1 -0.35
v 0.25 0 -0.35
v 0.25 0.1 -0.35
v 0.35 -0.4 -0.35
v 0.35 -0.2 -0.35
v 0.35 -0.1 -0.35
v 0.35 0 -0.35
v 0.45 -0.1 -0.35
v 0.45 0.2 -0.35
v 0.45 0.3 -0.35
v 0.55 -0.5 -0.35
v 0.55 -0.1 -0.35
v 0.65 -0.6 -0.35
v 0.65 -0.1 -0.35
v 0.65 0.2 -0.35
v 0.65 0.3 -0.35
v 0.75 -0.7 -0.35
v 0.75 0.3 -0.35
v -0.65 -0.1 -0.45
v -0.65 0.2 -0.45
v -0.65 0.3 -0.45
v -0.45 -0.1 -0.45
v -0.45 0.2 -0.45
v -0.45 0.3 -0.45
v 0.45 -0.1 -0.45
v 0.45 0.2 -0.45
v 0.45 0.3 -0.45
v 0.55 -0.1 -0.45
v 0.55 0.2 -0.45
v 0.65 -0.1 -0.45
v 0.65 0.2 -0.45
v 0.65 0.3 -0.45
v -0.75 -0.7 0.35
v 0.75 -0.7 0.35
v -0.65 -0.7 0.25
v 0.65 -0.7 0.25
v -0.65 -0.7 -0.25
v 0.65 -0.7 -0.25
v -0.75 -0.7 -0.35
v 0.75 -0.7 -0.35
v -0.65 -0.1 0.45
v -0.55 -0.1 0.45
v -0.45 -0.1 0.45
v 0.45 -0.1 0.45
v 0.65 -0.1 0.45
v -0.65 -0.1 0.35
v -0.55 -0.1 0.35
v -0.45 -0.1 0.35
v 0.45 -0.1 0.35
v 0.65 -0.1 0.35
v -0.65 -0.1 -0.35
v -0.45 -0.1 -0.35
v 0.45 -0.1 -0.35
v 0.55 -0.1 -0.35
v 0.65 -0.1 -0.35
v -0.65 -0.1 -0.45
v -0.45 -0.1 -0.45
v 0.45 -0.1 -0.45
v 0.55 -0.1 -0.45
v 0.65 -0.1 -0.45
v -0.85 0 0.25
v -0.75 0 0.25
v 0.75 0 0.25
v 0.85 0 0.25
v 0.75 0 0.15
v -0.75 0 -0.15
v -0.85 0 -0.25
v -0.75 0 -0.25
v 0.75 0 -0.25
v 0.85 0 -0.25
v -0.35 0.5 0.15
v -0.15 0.5 0.15
v 0.15 0.5 0.15
v 0.35 0.5 0.15
v -0.35 0.5 -0.15
v -0.15 0.5 -0.15
v 0.15 0.5 -0.15
v 0.35 0.5 -0.15
v -0.15 0.6 0.15
v 0.15 0.6 0.15
v -0.15 0.6 -0.15
v 0.15 0.6 -0.15
v -0.85 0.2 0.25
v -0.75 0.2 0.25
v 0.75 0.2 0.25
v 0.85 0.2 0.25
v -0.85 0.2 -0.25
v -0.75 0.2 -0.25
v 0.75 0.2 -0.25
v 0.85 0.2 -0.25
v -0.65 0.3 0.45
v -0.45 0.3 0.45
v 0.45 0.3 0.45
v 0.65 0.3 0.45
v -0.75 0.3 0.35
v -0.65 0.3 0.35
v -0.45 0.3 0.35
v 0.45 0.3 0.35
v 0.65 0.3 0.35
v 0.75 0.3 0.35
v -0.65 0.3 0.25
v 0.65 0.3 0.25
v -0.65 0.3 -0.25
v 0.65 0.3 -0.25
v -0.75 0.3 -0.35
v -0.65 0.3 -0.35
v -0.45 0.3 -0.35
v 0.45 0.3 -0.35
v 0.65 0.3 -0.35
v 0.75 0.3 -0.35
v -0.65 0.3 -0.45
v -0.45 0.3 -0.45
v 0.45 0.3 -0.45
v 0.65 0.3 -0.45
v -0.65 0.4 0.25
v 0.65 0.4 0.25
v -0.45 0.4 0.15
v -0.35 0.4 0.15
v 0.35 0.4 0.15
v 0.45 0.4 0.15
v -0.45 0.4 -0.15
v -0.35 0.4 -0.15
v 0.35 0.4 -0.15
v 0.45 0.4 -0.15
v -0.65 0.4 -0.25
v 0.65 0.4 -0.25
v -0.45 0.5 0.15
v -0.35 0.5 0.15
v 0.35 0.5 0.15
v 0.45 0.5 0.15
v -0.45 0.5 0.05
v -0.35 0.5 0.05
v 0.35 0.5 0.05
v 0.45 0.5 0.05
v -0.45 0.5 -0.05
v -0.35 0.5 -0.05
v 0.35 0.5 -0.05
v 0.45 0.5 -0.05
v -0.45 0.5 -0.15
v -0.35 0.5 -0.15
v 0.35 0.5 -0.15
v 0.45 0.5 -0.15
v -0.35 0.6 0.15
v -0.15 0.6 0.15
v 0.15 0.6 0.15
v 0.35 0.6 0.15
v -0.45 0.6 0.05
v -0.35 0.6 0.05
v -0.25 0.6 0.05
v -0.15 0.6 0.05
v 0.15 0.6 0.05
v 0.25 0.6 0.05
v 0.35 0.6 0.05
v 0.45 0.6 0.05
v -0.45 0.6 -0.05
v -0.35 0.6 -0.05
v -0.25 0.6 -0.05
v -0.15 0.6 -0.05
v 0.15 0.6 -0.05
v 0.25 0.6 -0.05
v 0.35 0.6 -0.05
v 0.45 0.6 -0.05
v -0.35 0.6 -0.15
v -0.15 0.6 -0.15
v 0.15 0.6 -0.15
v 0.35 0.6 -0.15
v -0.15 0.7 0.15
v 0.15 0.7 0.15
v -0.25 0.7 0.05
v -0.15 0.7 0.05
v 0.15 0.7 0.05
v 0.25 0.7 0.05
v -0.25 0.7 -0.05
v -0.15 0.7 -0.05
v 0.15 0.7 -0.05
v 0.25 0.7 -0.05
v -0.15 0.7 -0.15
v 0.15 0.7 -0.15

# faces
f 3/5/1 2/5/1 1/5/1
f 4/5/1 2/5/1 3/5/1
f 7/4/1 6/4/1 5/4/1
f 8/4/1 6/4/1 7/4/1
f 9/4/1 7/4/1 5/4/1
f 9/2/1 8/2/1 7/2/1
f 10/2/1 8/2/1 9/2/1
f 11/4/1 9/4/1 5/4/1
f 11/3/1 10/3/1 9/3/1
f 12/2/1 8/2/1 10/2/1
f 12/3/1 10/3/1 11/3/1
f 13/4/1 6/4/1 8/4/1
f 13/2/1 8/2/1 12/2/1
f 14/4/1 11/4/1 5/4/1
f 15/4/1 6/4/1 13/4/1
f 16/4/1 14/4/1 5/4/1
f 16/4/1 15/4/1 14/4/1
f 17/4/1 6/4/1 15/4/1
f 17/4/1 15/4/1 16/4/1
f 22/2/1 19/2/1 18/2/1
f 23/2/1 19/2/1 22/2/1
f 24/3/1 21/3/1 20/3/1
f 25/3/1 21/3/1 24/3/1
f 26/4/1 23/4/1 22/4/1
f 27/4/1 23/4/1 26/4/1
f 30/4/1 25/4/1 24/4/1
f 31/4/1 25/4/1 30/4/1
f 32/3/1 29/3/1 28/3/1
f 33/3/1 29/3/1 32/3/1
f 36/5/1 35/5/1 34/5/1
f 37/5/1 35/5/1 36/5/1
f 38/5/1 35/5/1 37/5/1
f 39/5/1 35/5/1 38/5/1
f 40/5/1 38/5/1 37/5/1
f 41/5/1 38/5/1 40/5/1
f 46/5/1 43/5/1 42/5/1
f 47/5/1 43/5/1 46/5/1
f 48/5/1 45/5/1 44/5/1
f 49/5/1 45/5/1 48/5/1
f 52/5/1 51/5/1 50/5/1
f 53/5/1 51/5/1 52/5/1
f 58/5/1 55/5/1 54/5/1
f 59/5/1 55/5/1 58/5/1
f 60/5/1 57/5/1 56/5/1
f 61/5/1 57/5/1 60/5/1
f 64/5/1 63/5/1 62/5/1
f 65/5/1 63/5/1 64/5/1
f 68/5/1 67/5/1 66/5/1
f 69/5/1 67/5/1 68/5/1
f 74/3/1 71/3/1 70/3/1
f 75/3/1 71/3/1 74/3/1
f 76/3/1 73/3/1 72/3/1
f 77/3/1 73/3/1 76/3/1
f 78/4/1 75/4/1 74/4/1
f 79/4/1 75/4/1 78/4/1
f 80/4/1 77/4/1 76/4/1
f 81/4/1 77/4/1 80/4/1
f 82/3/2 83/3/2 86/3/2
f 86/3/2 83/3/2 87/3/2
f 84/3/2 85/3/2 88/3/2
f 88/3/2 85/3/2 89/3/2
f 86/4/2 87/4/2 90/4/2
f 90/4/2 87/4/2 91/4/2
f 88/4/2 89/4/2 92/4/2
f 92/4/2 89/4/2 93/4/2
f 94/5/2 95/5/2 96/5/2
f 96/5/2 95/5/2 97/5/2
f 98/5/2 99/5/2 100/5/2
f 100/5/2 99/5/2 101/5/2
f 102/5/2 103/5/2 106/5/2
f 106/5/2 103/5/2 107/5/2
f 104/5/2 105/5/2 108/5/2
f 108/5/2 105/5/2 109/5/2
f 110/5/2 111/5/2 112/5/2
f 112/5/2 111/5/2 113/5/2
f 114/5/2 115/5/2 118/5/2
f 118/5/2 115/5/2 119/5/2
f 116/5/2 117/5/2 120/5/2
f 120/5/2 117/5/2 121/5/2
f 122/5/2 123/5/2 124/5/2
f 124/5/2 123/5/2 125/5/2
f 125/5/2 123/5/2 126/5/2
f 126/5/2 123/5/2 127/5/2
f 125/5/2 126/5/2 128/5/2
f 128/5/2 126/5/2 129/5/2
f 130/3/2 131/3/2 134/3/2
f 134/3/2 131/3/2 135/3/2
f 132/2/2 133/2/2 136/2/2
f 136/2/2 133/2/2 137/2/2
f 134/4/2 135/4/2 138/4/2
f 138/4/2 135/4/2 139/4/2
f 136/4/2 137/4/2 142/4/2
f 142/4/2 137/4/2 143/4/2
f 140/3/2 141/3/2 144/3/2
f 144/3/2 141/3/2 145/3/2
f 146/4/2 147/4/2 148/4/2
f 148/4/2 147/4/2 149/4/2
f 148/2/2 149/2/2 150/2/2
f 149/4/2 147/4/2 151/4/2
f 150/2/2 149/2/2 151/2/2
f 146/4/2 148/4/2 152/4/2
f 148/2/2 150/2/2 152/2/2
f 150/3/2 151/3/2 153/3/2
f 152/2/2 150/2/2 153/2/2
f 151/4/2 147/4/2 154/4/2
f 153/3/2 151/3/2 154/3/2
f 146/4/2 152/4/2 155/4/2
f 154/4/2 147/4/2 156/4/2
f 146/4/2 155/4/2 157/4/2
f 155/4/2 156/4/2 157/4/2
f 156/4/2 147/4/2 158/4/2
f 157/4/2 156/4/2 158/4/2
f 159/5/2 160/5/2 161/5/2
f 161/5/2 160/5/2 162/5/2
f 166/2/3 164/2/3 163/2/3
f 167/4/3 165/4/3 164/4/3
f 167/2/3 164/2/3 166/2/3
f 168/3/3 167/3/3 166/3/3
f 169/4/3 165/4/3 167/4/3
f 169/3/3 167/3/3 168/3/3
f 170/4/3 165/4/3 169/4/3
f 174/3/3 172/3/3 171/3/3
f 175/4/3 173/4/3 172/4/3
f 175/3/3 172/3/3 174/3/3
f 176/4/3 173/4/3 175/4/3
f 179/4/3 178/4/3 177/4/3
f 180/4/3 178/4/3 179/4/3
f 181/4/3 178/4/3 180/4/3
f 182/4/3 178/4/3 181/4/3
f 183/2/3 180/2/3 179/2/3
f 184/2/3 180/2/3 183/2/3
f 185/3/3 184/3/3 183/3/3
f 188/3/3 185/3/3 183/3/3
f 188/3/3 186/3/3 185/3/3
f 189/3/3 186/3/3 188/3/3
f 190/3/3 186/3/3 189/3/3
f 191/3/3 186/3/3 190/3/3
f 192/3/3 188/3/3 183/3/3
f 192/1/3 189/1/3 188/1/3
f 193/3/3 190/3/3 189/3/3
f 193/1/3 189/1/3 192/1/3
f 194/1/3 191/1/3 190/1/3
f 194/3/3 190/3/3 193/3/3
f 195/3/3 186/3/3 191/3/3
f 195/1/3 191/1/3 194/1/3
f 196/3/3 186/3/3 195/3/3
f 197/3/3 194/3/3 193/3/3
f 197/3/3 193/3/3 192/3/3
f 197/3/3 195/3/3 194/3/3
f 198/3/3 195/3/3 197/3/3
f 199/3/3 195/3/3 198/3/3
f 200/1/3 196/1/3 195/1/3
f 200/3/3 195/3/3 199/3/3
f 201/3/3 186/3/3 196/3/3
f 201/1/3 196/1/3 200/1/3
f 202/3/3 192/3/3 183/3/3
f 202/3/3 197/3/3 192/3/3
f 203/1/3 198/1/3 197/1/3
f 203/3/3 197/3/3 202/3/3
f 204/1/3 200/1/3 199/1/3
f 204/3/3 199/3/3 198/3/3
f 205/3/3 201/3/3 200/3/3
f 205/1/3 200/1/3 204/1/3
f 206/1/3 203/1/3 202/1/3
f 206/3/3 202/3/3 183/3/3
f 207/1/3 198/1/3 203/1/3
f 207/1/3 203/1/3 206/1/3
f 207/3/3 204/3/3 198/3/3
f 207/3/3 205/3/3 204/3/3
f 208/3/3 201/3/3 205/3/3
f 208/3/3 205/3/3 207/3/3
f 209/3/3 186/3/3 201/3/3
f 209/3/3 201/3/3 208/3/3
f 210/3/3 207/3/3 206/3/3
f 210/3/3 208/3/3 207/3/3
f 211/3/3 208/3/3 210/3/3
f 212/3/3 208/3/3 211/3/3
f 213/1/3 209/1/3 208/1/3
f 213/3/3 208/3/3 212/3/3
f 214/3/3 186/3/3 209/3/3
f 214/1/3 209/1/3 213/1/3
f 215/3/3 206/3/3 183/3/3
f 215/3/3 210/3/3 206/3/3
f 216/1/3 211/1/3 210/1/3
f 216/3/3 210/3/3 215/3/3
f 217/3/3 212/3/3 211/3/3
f 217/1/3 211/1/3 216/1/3
f 218/1/3 213/1/3 212/1/3
f 218/3/3 212/3/3 217/3/3
f 219/3/3 214/3/3 213/3/3
f 219/1/3 213/1/3 218/1/3
f 220/1/3 216/1/3 215/1/3
f 220/3/3 215/3/3 183/3/3
f 221/3/3 217/3/3 216/3/3
f 221/1/3 216/1/3 220/1/3
f 221/3/3 218/3/3 217/3/3
f 221/3/3 219/3/3 218/3/3
f 222/3/3 219/3/3 221/3/3
f 223/3/3 221/3/3 220/3/3
f 223/1/3 222/1/3 221/1/3
f 224/3/3 219/3/3 222/3/3
f 224/1/3 222/1/3 223/1/3
f 225/3/3 219/3/3 224/3/3
f 226/4/3 187/4/3 186/4/3
f 226/3/3 219/3/3 225/3/3
f 226/3/3 186/3/3 214/3/3
f 226/3/3 214/3/3 219/3/3
f 227/4/3 187/4/3 226/4/3
f 228/4/3 179/4/3 177/4/3
f 228/2/3 183/2/3 179/2/3
f 229/3/3 223/3/3 220/3/3
f 229/2/3 183/2/3 228/2/3
f 229/3/3 225/3/3 224/3/3
f 229/3/3 220/3/3 183/3/3
f 229/3/3 224/3/3 223/3/3
f 230/3/3 225/3/3 229/3/3
f 233/4/3 228/4/3 177/4/3
f 233/4/3 232/4/3 231/4/3
f 233/4/3 231/4/3 230/4/3
f 233/4/3 230/4/3 229/4/3
f 233/4/3 229/4/3 228/4/3
f 234/4/3 232/4/3 233/4/3
f 237/5/3 236/5/3 235/5/3
f 238/5/3 236/5/3 237/5/3
f 241/3/3 240/3/3 239/3/3
f 242/3/3 240/3/3 241/3/3
f 245/5/3 244/5/3 243/5/3
f 246/5/3 244/5/3 245/5/3
f 249/5/3 248/5/3 247/5/3
f 250/5/3 248/5/3 249/5/3
f 252/5/3 251/5/3 250/5/3
f 253/5/3 251/5/3 252/5/3
f 256/5/3 254/5/3 253/5/3
f 257/5/3 254/5/3 256/5/3
f 259/5/3 256/5/3 255/5/3
f 260/5/3 256/5/3 259/5/3
f 261/5/3 259/5/3 258/5/3
f 262/5/3 259/5/3 261/5/3
f 265/5/3 264/5/3 263/5/3
f 266/5/3 264/5/3 265/5/3
f 269/5/3 268/5/3 267/5/3
f 270/5/3 268/5/3 269/5/3
f 273/5/3 272/5/3 271/5/3
f 274/5/3 272/5/3 273/5/3
f 277/5/3 276/5/3 275/5/3
f 278/5/3 276/5/3 277/5/3
f 279/5/4 280/5/4 281/5/4
f 281/5/4 280/5/4 282/5/4
f 283/5/4 284/5/4 285/5/4
f 285/5/4 284/5/4 286/5/4
f 287/5/4 288/5/4 289/5/4
f 289/5/4 288/5/4 290/5/4
f 291/5/4 292/5/4 293/5/4
f 293/5/4 292/5/4 294/5/4
f 295/5/4 296/5/4 297/5/4
f 297/5/4 296/5/4 298/5/4
f 298/5/4 299/5/4 300/5/4
f 300/5/4 299/5/4 301/5/4
f 301/5/4 302/5/4 304/5/4
f 304/5/4 302/5/4 305/5/4
f 303/5/4 304/5/4 307/5/4
f 307/5/4 304/5/4 308/5/4
f 306/5/4 307/5/4 309/5/4
f 309/5/4 307/5/4 310/5/4
f 311/5/4 312/5/4 313/5/4
f 313/5/4 312/5/4 314/5/4
f 315/3/4 316/3/4 317/3/4
f 317/3/4 316/3/4 318/3/4
f 319/5/4 320/5/4 321/5/4
f 321/5/4 320/5/4 322/5/4
f 323/4/4 324/4/4 325/4/4
f 325/4/4 324/4/4 326/4/4
f 326/4/4 324/4/4 327/4/4
f 327/4/4 324/4/4 328/4/4
f 328/4/4 324/4/4 329/4/4
f 326/3/4 327/3/4 330/3/4
f 330/3/4 327/3/4 331/3/4
f 331/3/4 327/3/4 332/3/4
f 326/3/4 330/3/4 335/3/4
f 330/1/4 331/1/4 336/1/4
f 335/3/4 330/3/4 336/3/4
f 331/3/4 332/3/4 337/3/4
f 336/1/4 331/1/4 337/1/4
f 332/3/4 333/3/4 337/3/4
f 326/3/4 335/3/4 338/3/4
f 335/1/4 336/1/4 338/1/4
f 336/3/4 337/3/4 339/3/4
f 338/1/4 336/1/4 339/1/4
f 337/3/4 333/3/4 340/3/4
f 339/3/4 337/3/4 340/3/4
f 340/3/4 333/3/4 341/3/4
f 341/3/4 333/3/4 342/3/4
f 338/3/4 339/3/4 343/3/4
f 339/1/4 340/1/4 343/1/4
f 340/3/4 341/3/4 344/3/4
f 343/1/4 340/1/4 344/1/4
f 341/1/4 342/1/4 345/1/4
f 344/3/4 341/3/4 345/3/4
f 342/3/4 333/3/4 346/3/4
f 345/1/4 342/1/4 346/1/4
f 346/3/4 333/3/4 347/3/4
f 344/3/4 345/3/4 348/3/4
f 326/3/4 338/3/4 348/3/4
f 343/3/4 344/3/4 348/3/4
f 345/3/4 346/3/4 348/3/4
f 338/3/4 343/3/4 348/3/4
f 348/3/4 346/3/4 349/3/4
f 346/1/4 347/1/4 350/1/4
f 349/3/4 346/3/4 350/3/4
f 347/3/4 333/3/4 351/3/4
f 350/1/4 347/1/4 351/1/4
f 348/1/4 349/1/4 352/1/4
f 326/3/4 348/3/4 352/3/4
f 352/1/4 349/1/4 353/1/4
f 349/3/4 350/3/4 354/3/4
f 350/3/4 351/3/4 354/3/4
f 354/3/4 351/3/4 355/3/4
f 353/1/4 349/1/4 356/1/4
f 352/3/4 353/3/4 356/3/4
f 349/3/4 354/3/4 357/3/4
f 356/1/4 349/1/4 357/1/4
f 354/1/4 355/1/4 358/1/4
f 357/3/4 354/3/4 358/3/4
f 355/3/4 351/3/4 359/3/4
f 358/1/4 355/1/4 359/1/4
f 351/3/4 333/3/4 360/3/4
f 359/3/4 351/3/4 360/3/4
f 357/3/4 358/3/4 361/3/4
f 358/3/4 359/3/4 361/3/4
f 356/3/4 357/3/4 361/3/4
f 352/3/4 356/3/4 361/3/4
f 326/3/4 352/3/4 361/3/4
f 361/3/4 359/3/4 362/3/4
f 362/3/4 359/3/4 363/3/4
f 359/1/4 360/1/4 364/1/4
f 363/3/4 359/3/4 364/3/4
f 360/3/4 333/3/4 365/3/4
f 364/1/4 360/1/4 365/1/4
f 326/3/4 361/3/4 366/3/4
f 361/1/4 362/1/4 366/1/4
f 362/3/4 363/3/4 367/3/4
f 366/1/4 362/1/4 367/1/4
f 363/1/4 364/1/4 368/1/4
f 367/3/4 363/3/4 368/3/4
f 364/3/4 365/3/4 369/3/4
f 368/1/4 364/1/4 369/1/4
f 366/3/4 367/3/4 370/3/4
f 367/3/4 368/3/4 370/3/4
f 368/3/4 369/3/4 370/3/4
f 333/4/4 334/4/4 371/4/4
f 370/3/4 369/3/4 371/3/4
f 369/3/4 365/3/4 371/3/4
f 365/3/4 333/3/4 371/3/4
f 371/4/4 334/4/4 372/4/4
f 325/2/4 326/2/4 373/2/4
f 366/3/4 370/3/4 373/3/4
f 326/3/4 366/3/4 373/3/4
f 373/3/4 370/3/4 374/3/4
f 323/4/4 325/4/4 375/4/4
f 325/2/4 373/2/4 375/2/4
f 373/2/4 374/2/4 375/2/4
f 375/2/4 374/2/4 376/2/4
f 375/4/4 376/4/4 379/4/4
f 377/4/4 378/4/4 379/4/4
f 376/4/4 377/4/4 379/4/4
f 323/4/4 375/4/4 379/4/4
f 379/4/4 378/4/4 380/4/4
f 381/3/4 382/3/4 384/3/4
f 382/4/4 383/4/4 385/4/4
f 384/3/4 382/3/4 385/3/4
f 385/4/4 383/4/4 386/4/4
f 387/3/4 388/3/4 390/3/4
f 388/4/4 389/4/4 391/4/4
f 390/3/4 388/3/4 391/3/4
f 390/2/4 391/2/4 392/2/4
f 391/4/4 389/4/4 393/4/4
f 392/2/4 391/2/4 393/2/4
f 393/4/4 389/4/4 394/4/4
f 397/4/5 396/4/5 395/4/5
f 398/4/5 396/4/5 397/4/5
f 399/4/5 397/4/5 395/4/5
f 399/3/5 398/3/5 397/3/5
f 400/4/5 396/4/5 398/4/5
f 400/3/5 398/3/5 399/3/5
f 401/4/5 399/4/5 395/4/5
f 401/4/5 400/4/5 399/4/5
f 402/4/5 396/4/5 400/4/5
f 402/4/5 400/4/5 401/4/5
f 408/2/5 404/2/5 403/2/5
f 409/3/5 405/3/5 404/3/5
f 409/2/5 404/2/5 408/2/5
f 410/3/5 405/3/5 409/3/5
f 411/3/5 407/3/5 406/3/5
f 412/3/5 407/3/5 411/3/5
f 418/3/5 414/3/5 413/3/5
f 419/3/5 414/3/5 418/3/5
f 420/3/5 416/3/5 415/3/5
f 421/2/5 417/2/5 416/2/5
f 421/3/5 416/3/5 420/3/5
f 422/2/5 417/2/5 421/2/5
f 427/5/5 426/5/5 425/5/5
f 428/5/5 424/5/5 423/5/5
f 429/5/5 428/5/5 423/5/5
f 430/5/5 428/5/5 429/5/5
f 431/5/5 426/5/5 427/5/5
f 432/5/5 426/5/5 431/5/5
f 437/5/5 434/5/5 433/5/5
f 438/5/5 434/5/5 437/5/5
f 439/5/5 436/5/5 435/5/5
f 440/5/5 436/5/5 439/5/5
f 443/5/5 442/5/5 441/5/5
f 444/5/5 442/5/5 443/5/5
f 445/5/6 446/5/6 449/5/6
f 449/5/6 446/5/6 450/5/6
f 447/5/6 448/5/6 451/5/6
f 451/5/6 448/5/6 452/5/6
f 453/4/6 454/4/6 458/4/6
f 458/4/6 454/4/6 459/4/6
f 455/4/6 456/4/6 460/4/6
f 460/4/6 456/4/6 461/4/6
f 458/4/6 459/4/6 463/4/6
f 461/4/6 462/4/6 463/4/6
f 460/4/6 461/4/6 463/4/6
f 459/4/6 460/4/6 463/4/6
f 457/4/6 458/4/6 463/4/6
f 463/4/6 462/4/6 464/4/6
f 457/4/6 463/4/6 465/4/6
f 464/4/6 462/4/6 466/4/6
f 457/4/6 465/4/6 467/4/6
f 465/4/6 466/4/6 467/4/6
f 467/4/6 466/4/6 468/4/6
f 468/4/6 466/4/6 469/4/6
f 469/4/6 466/4/6 470/4/6
f 466/4/6 462/4/6 471/4/6
f 470/4/6 466/4/6 471/4/6
f 471/4/6 462/4/6 472/4/6
f 468/4/6 469/4/6 473/4/6
f 473/4/6 469/4/6 474/4/6
f 470/4/6 471/4/6 475/4/6
f 475/4/6 471/4/6 476/4/6
f 477/3/6 478/3/6 479/3/6
f 479/3/6 478/3/6 480/3/6
f 480/3/6 478/3/6 481/3/6
f 481/3/6 478/3/6 482/3/6
f 477/3/6 479/3/6 483/3/6
f 480/3/6 481/3/6 484/3/6
f 484/3/6 481/3/6 485/3/6
f 482/3/6 478/3/6 486/3/6
f 484/3/6 485/3/6 487/3/6
f 485/3/6 486/3/6 487/3/6
f 477/3/6 483/3/6 487/3/6
f 483/3/6 484/3/6 487/3/6
f 486/3/6 478/3/6 488/3/6
f 487/3/6 486/3/6 488/3/6
f 489/5/6 490/5/6 493/5/6
f 493/5/6 490/5/6 494/5/6
f 491/5/6 492/5/6 495/5/6
f 495/5/6 492/5/6 496/5/6
f 497/5/6 498/5/6 501/5/6
f 501/5/6 498/5/6 502/5/6
f 499/5/6 500/5/6 503/5/6
f 503/5/6 500/5/6 504/5/6
f 505/5/6 506/5/6 510/5/6
f 510/5/6 506/5/6 511/5/6
f 511/5/6 506/5/6 512/5/6
f 507/5/6 508/5/6 513/5/6
f 513/5/6 508/5/6 514/5/6
f 514/5/6 508/5/6 515/5/6
f 509/5/6 510/5/6 517/5/6
f 510/5/6 511/5/6 517/5/6
f 517/5/6 511/5/6 518/5/6
f 518/5/6 511/5/6 519/5/6
f 515/5/6 516/5/6 522/5/6
f 514/5/6 515/5/6 522/5/6
f 522/5/6 516/5/6 523/5/6
f 523/5/6 516/5/6 524/5/6
f 519/5/6 520/5/6 525/5/6
f 518/5/6 519/5/6 525/5/6
f 525/5/6 520/5/6 526/5/6
f 522/5/6 523/5/6 527/5/6
f 521/5/6 522/5/6 527/5/6
f 527/5/6 523/5/6 528/5/6
f 529/5/6 530/5/6 532/5/6
f 532/5/6 530/5/6 533/5/6
f 531/5/6 532/5/6 535/5/6
f 533/5/6 534/5/6 535/5/6
f 532/5/6 533/5/6 535/5/6
f 535/5/6 534/5/6 536/5/6
f 536/5/6 534/5/6 537/5/6
f 537/5/6 534/5/6 538/5/6
f 536/5/6 537/5/6 539/5/6
f 539/5/6 537/5/6 540/5/6
