# MagicaVoxel @ Ephtracy

# group
o 

# material
mtllib Knife.mtl
usemtl palette

# normals
vn -1 0 0
vn 1 0 0
vn 0 0 1
vn 0 0 -1
vn 0 -1 0
vn 0 1 0

# texcoords
vt 0.310547 0.5
vt 0.955078 0.5
vt 0.974609 0.5
vt 0.982422 0.5
vt 0.986328 0.5
vt 0.990234 0.5

# verts
v -0.2 -0.15 0.15
v -0.2 -0.15 -0.15
v -0.2 -0.05 0.15
v -0.2 -0.05 -0.15
v -0.1 -0.55 0.05
v -0.1 -0.55 -0.05
v -0.1 -0.45 0.05
v -0.1 -0.45 -0.05
v -0.1 -0.35 0.05
v -0.1 -0.35 -0.05
v -0.1 -0.25 0.05
v -0.1 -0.25 -0.05
v -0.1 -0.15 0.05
v -0.1 -0.15 -0.05
v -0.1 -0.05 0.05
v -0.1 -0.05 -0.05
v -0.1 0.35 0.05
v -0.1 0.35 -0.05
v -0.1 0.45 0.05
v -0.1 0.45 -0.05
v 0 0.45 0.05
v 0 0.45 -0.05
v 0 0.55 0.05
v 0 0.55 -0.05
v 0.1 -0.55 0.05
v 0.1 -0.55 -0.05
v 0.1 -0.15 0.05
v 0.1 -0.15 -0.05
v 0.1 -0.05 0.05
v 0.1 -0.05 -0.05
v 0.1 0.15 0.05
v 0.1 0.15 -0.05
v 0.1 0.45 0.05
v 0.1 0.45 -0.05
v 0.1 0.55 0.05
v 0.1 0.55 -0.05
v 0.2 -0.15 0.15
v 0.2 -0.15 -0.15
v 0.2 -0.05 0.15
v 0.2 -0.05 -0.15
v -0.2 -0.15 0.15
v -0.2 -0.05 0.15
v 0.2 -0.15 0.15
v 0.2 -0.05 0.15
v -0.1 -0.55 0.05
v -0.1 -0.45 0.05
v -0.1 -0.35 0.05
v -0.1 -0.25 0.05
v -0.1 -0.15 0.05
v -0.1 -0.05 0.05
v -0.1 0.35 0.05
v -0.1 0.45 0.05
v 0 -0.45 0.05
v 0 -0.35 0.05
v 0 -0.25 0.05
v 0 -0.15 0.05
v 0 -0.05 0.05
v 0 0.15 0.05
v 0 0.35 0.05
v 0 0.45 0.05
v 0 0.55 0.05
v 0.1 -0.55 0.05
v 0.1 -0.15 0.05
v 0.1 -0.05 0.05
v 0.1 0.15 0.05
v 0.1 0.45 0.05
v 0.1 0.55 0.05
v -0.1 -0.55 -0.05
v -0.1 -0.45 -0.05
v -0.1 -0.35 -0.05
v -0.1 -0.25 -0.05
v -0.1 -0.15 -0.05
v -0.1 -0.05 -0.05
v -0.1 0.35 -0.05
v -0.1 0.45 -0.05
v 0 -0.45 -0.05
v 0 -0.35 -0.05
v 0 -0.25 -0.05
v 0 -0.15 -0.05
v 0 -0.05 -0.05
v 0 0.15 -0.05
v 0 0.35 -0.05
v 0 0.45 -0.05
v 0 0.55 -0.05
v 0.1 -0.55 -0.05
v 0.1 -0.15 -0.05
v 0.1 -0.05 -0.05
v 0.1 0.15 -0.05
v 0.1 0.45 -0.05
v 0.1 0.55 -0.05
v -0.2 -0.15 -0.15
v -0.2 -0.05 -0.15
v 0.2 -0.15 -0.15
v 0.2 -0.05 -0.15
v -0.1 -0.55 0.05
v 0.1 -0.55 0.05
v -0.1 -0.55 -0.05
v 0.1 -0.55 -0.05
v -0.2 -0.15 0.15
v 0.2 -0.15 0.15
v -0.1 -0.15 0.05
v 0 -0.15 0.05
v 0.1 -0.15 0.05
v -0.1 -0.15 -0.05
v 0 -0.15 -0.05
v 0.1 -0.15 -0.05
v -0.2 -0.15 -0.15
v 0.2 -0.15 -0.15
v -0.2 -0.05 0.15
v 0.2 -0.05 0.15
v -0.1 -0.05 0.05
v 0 -0.05 0.05
v 0.1 -0.05 0.05
v -0.1 -0.05 -0.05
v 0 -0.05 -0.05
v 0.1 -0.05 -0.05
v -0.2 -0.05 -0.15
v 0.2 -0.05 -0.15
v -0.1 0.45 0.05
v 0 0.45 0.05
v -0.1 0.45 -0.05
v 0 0.45 -0.05
v 0 0.55 0.05
v 0.1 0.55 0.05
v 0 0.55 -0.05
v 0.1 0.55 -0.05

# faces
f 3/6/1 2/6/1 1/6/1
f 4/6/1 2/6/1 3/6/1
f 7/2/1 6/2/1 5/2/1
f 8/2/1 6/2/1 7/2/1
f 9/1/1 8/1/1 7/1/1
f 10/1/1 8/1/1 9/1/1
f 11/2/1 10/2/1 9/2/1
f 12/2/1 10/2/1 11/2/1
f 13/1/1 12/1/1 11/1/1
f 14/1/1 12/1/1 13/1/1
f 17/4/1 16/4/1 15/4/1
f 18/4/1 16/4/1 17/4/1
f 19/5/1 18/5/1 17/5/1
f 20/5/1 18/5/1 19/5/1
f 23/5/1 22/5/1 21/5/1
f 24/5/1 22/5/1 23/5/1
f 25/2/2 26/2/2 27/2/2
f 27/2/2 26/2/2 28/2/2
f 29/3/2 30/3/2 31/3/2
f 31/3/2 30/3/2 32/3/2
f 31/4/2 32/4/2 33/4/2
f 33/4/2 32/4/2 34/4/2
f 33/5/2 34/5/2 35/5/2
f 35/5/2 34/5/2 36/5/2
f 37/6/2 38/6/2 39/6/2
f 39/6/2 38/6/2 40/6/2
f 43/6/3 42/6/3 41/6/3
f 44/6/3 42/6/3 43/6/3
f 53/2/3 46/2/3 45/2/3
f 53/1/3 47/1/3 46/1/3
f 54/2/3 48/2/3 47/2/3
f 54/1/3 47/1/3 53/1/3
f 55/1/3 49/1/3 48/1/3
f 55/2/3 48/2/3 54/2/3
f 56/1/3 49/1/3 55/1/3
f 57/4/3 51/4/3 50/4/3
f 58/4/3 51/4/3 57/4/3
f 59/5/3 52/5/3 51/5/3
f 59/4/3 51/4/3 58/4/3
f 60/5/3 52/5/3 59/5/3
f 62/2/3 56/2/3 55/2/3
f 62/2/3 53/2/3 45/2/3
f 62/2/3 54/2/3 53/2/3
f 62/2/3 55/2/3 54/2/3
f 63/2/3 56/2/3 62/2/3
f 64/3/3 58/3/3 57/3/3
f 65/4/3 60/4/3 59/4/3
f 65/3/3 58/3/3 64/3/3
f 65/4/3 59/4/3 58/4/3
f 66/5/3 61/5/3 60/5/3
f 66/4/3 60/4/3 65/4/3
f 67/5/3 61/5/3 66/5/3
f 68/2/4 69/2/4 76/2/4
f 69/1/4 70/1/4 76/1/4
f 70/2/4 71/2/4 77/2/4
f 76/1/4 70/1/4 77/1/4
f 71/1/4 72/1/4 78/1/4
f 77/2/4 71/2/4 78/2/4
f 78/1/4 72/1/4 79/1/4
f 73/4/4 74/4/4 80/4/4
f 80/4/4 74/4/4 81/4/4
f 74/5/4 75/5/4 82/5/4
f 81/4/4 74/4/4 82/4/4
f 82/5/4 75/5/4 83/5/4
f 78/2/4 79/2/4 85/2/4
f 68/2/4 76/2/4 85/2/4
f 76/2/4 77/2/4 85/2/4
f 77/2/4 78/2/4 85/2/4
f 85/2/4 79/2/4 86/2/4
f 80/3/4 81/3/4 87/3/4
f 82/4/4 83/4/4 88/4/4
f 87/3/4 81/3/4 88/3/4
f 81/4/4 82/4/4 88/4/4
f 83/5/4 84/5/4 89/5/4
f 88/4/4 83/4/4 89/4/4
f 89/5/4 84/5/4 90/5/4
f 91/6/4 92/6/4 93/6/4
f 93/6/4 92/6/4 94/6/4
f 97/2/5 96/2/5 95/2/5
f 98/2/5 96/2/5 97/2/5
f 101/6/5 100/6/5 99/6/5
f 102/6/5 100/6/5 101/6/5
f 103/6/5 100/6/5 102/6/5
f 104/6/5 101/6/5 99/6/5
f 106/6/5 100/6/5 103/6/5
f 107/6/5 105/6/5 104/6/5
f 107/6/5 106/6/5 105/6/5
f 107/6/5 104/6/5 99/6/5
f 108/6/5 100/6/5 106/6/5
f 108/6/5 106/6/5 107/6/5
f 109/6/6 110/6/6 111/6/6
f 111/6/6 110/6/6 112/6/6
f 112/6/6 110/6/6 113/6/6
f 109/6/6 111/6/6 114/6/6
f 113/6/6 110/6/6 116/6/6
f 114/6/6 115/6/6 117/6/6
f 115/6/6 116/6/6 117/6/6
f 109/6/6 114/6/6 117/6/6
f 116/6/6 110/6/6 118/6/6
f 117/6/6 116/6/6 118/6/6
f 119/5/6 120/5/6 121/5/6
f 121/5/6 120/5/6 122/5/6
f 123/5/6 124/5/6 125/5/6
f 125/5/6 124/5/6 126/5/6
